<?xml version="1.0" encoding="utf-8"?>
<!-- Svg Vector Icons : http://www.onlinewebfonts.com/icon -->
<!DOCTYPE svg PUBLIC "-//W3C//DTD SVG 1.1//EN" "http://www.w3.org/Graphics/SVG/1.1/DTD/svg11.dtd">
<svg version="1.1" xmlns="http://www.w3.org/2000/svg" xmlns:xlink="http://www.w3.org/1999/xlink" x="0px" y="0px" viewBox="0 0 1000 1000" enable-background="new 0 0 1000 1000" xml:space="preserve">
<metadata> Svg Vector Icons : http://www.onlinewebfonts.com/icon </metadata>
<g><g transform="translate(0.000000,511.000000) scale(0.100000,-0.100000)"><path d="M1672.4,4997.9c-17-6.4-210.5-189.2-429.5-406.1c-418.9-416.8-450.8-461.4-391.3-572c46.8-89.3,784.6-814.4,833.6-816.5c138.2-8.5,221.1,55.3,221.1,170.1c0,70.2-23.4,99.9-223.3,299.8c-123.3,123.3-223.3,229.6-223.3,238.2c0,10.6,569.9,17,1265.2,17c1231.2,0,1267.3,2.1,1307.7,42.5c89.3,89.3,68,236-42.5,291.3c-40.4,21.3-336,27.6-1295,27.6h-1244l227.5,231.8c189.3,191.4,227.5,240.3,227.5,295.6c0,93.6-19.1,129.7-87.2,163.7C1757.5,5014.9,1727.7,5017.1,1672.4,4997.9z"/><path d="M8189.9,4989.4c-68.1-38.3-95.7-87.2-95.7-165.9c0-68.1,23.4-100,227.5-304.1l229.7-229.6H7307.5c-952.7,0-1256.7-6.4-1297.1-27.6c-114.8-57.4-134-199.9-42.5-291.3c40.4-40.4,76.5-42.5,1307.7-42.5c695.3,0,1265.2-6.4,1265.2-14.9c0-10.6-100-112.7-223.3-231.8c-210.5-202-223.3-216.9-223.3-297.7c0-127.6,76.5-189.2,221.2-180.7c48.9,2.1,786.8,727.2,833.5,816.5c19.2,36.2,27.7,85.1,19.2,119.1c-8.5,36.2-151,195.6-410.4,455.1C8347.3,5004.3,8287.7,5044.7,8189.9,4989.4z"/><path d="M4766.4,3139.4c-119.1-59.5-199.9-142.5-257.3-263.7l-51-106.3V881.2c0-2005.2,0-1983.9-95.7-2022.2c-65.9-25.5-155.2-12.8-204.1,27.6c-51,40.4-51,48.9-61.7,501.8l-10.6,459.3l-148.8-104.2c-204.1-142.5-397.6-355.1-482.7-529.5l-70.2-144.6v-616.7v-616.7l61.7-180.7c165.9-493.3,497.6-1016.4,1127-1775.6l244.5-295.6l-57.4-25.5c-134-55.3-163.7-208.4-59.5-297.7l57.4-51h1690.5H8141l61.7,61.7c93.6,95.7,70.2,229.6-46.8,280.7c-108.5,42.5-89.3,148.8,161.6,912.2c265.8,810.2,380.6,1250.3,448.7,1743.7c44.6,308.3,65.9,1477.9,31.9,1643.7c-48.9,233.9-248.8,412.5-484.8,433.8c-68,6.4-148.8,0-180.7-12.8l-59.5-23.4v-476.3v-478.4l-55.3-42.5c-78.7-61.7-180.7-57.4-244.5,10.6l-51,55.3l-10.6,661.3c-10.6,633.7-12.8,667.7-57.4,750.6c-108.5,204.1-355.1,319-589,276.4l-76.5-14.9V332.5v-659.2l-53.2-51c-76.5-78.7-182.9-72.3-253,12.8L6627-299v625.2c0,676.2-4.3,701.7-119.1,852.7c-108.5,142.5-336,225.4-527.4,189.2l-76.6-14.9V517.5v-835.7l-53.2-57.4c-85.1-91.4-223.3-70.2-282.8,44.7c-19.1,34-25.5,448.7-25.5,1552.3c0,971.8-8.5,1533.1-21.3,1584.2c-36.2,125.5-146.7,255.2-274.3,321.1C5100.2,3199,4898.2,3205.3,4766.4,3139.4z"/></g></g>
</svg>